<svg width="40" height="40" viewBox="0 0 40 40" fill="none" xmlns="http://www.w3.org/2000/svg">
<path d="M20 0C8.96 0 0 8.96 0 20C0 31.04 8.96 40 20 40C31.04 40 40 31.04 40 20C40 8.96 31.04 0 20 0ZM22 6.6L24.7 4.7C28.34 5.82 31.44 8.22 33.46 11.38L32.68 14.06L29.98 14.98L22 9.4V6.6ZM15.3 4.7L18 6.6V9.4L10.02 14.98L7.32 14.06L6.54 11.38C8.56 8.24 11.66 5.84 15.3 4.7ZM10.16 30.22L7.88 30.42C5.46 27.62 4 23.98 4 20C4 19.76 4.02 19.54 4.04 19.3L6.04 17.84L8.8 18.8L11.72 27.48L10.16 30.22ZM25 35.18C23.42 35.7 21.74 36 20 36C18.26 36 16.58 35.7 15 35.18L13.62 32.2L14.9 30H25.12L26.4 32.22L25 35.18ZM24.54 26H15.46L12.76 17.96L20 12.88L27.26 17.96L24.54 26ZM32.12 30.42L29.84 30.22L28.26 27.48L31.18 18.8L33.96 17.86L35.96 19.32C35.98 19.54 36 19.76 36 20C36 23.98 34.54 27.62 32.12 30.42Z" fill="#515151"/>
</svg>
